<svg xmlns="http://www.w3.org/2000/svg" viewBox="0 0 240 240" role="img" aria-labelledby="t">
  <title id="t">Purrmentals cat spark logo</title>
  <defs>
    <linearGradient id="g" x1="0" y1="0" x2="1" y2="1">
      <stop offset="0" stop-color="#FF6BA6"/>
      <stop offset="1" stop-color="#24D1C4"/>
    </linearGradient>
  </defs>
  <!-- Cat head -->
  <circle cx="120" cy="110" r="62" fill="url(#g)" />
  <polygon points="75,70 95,30 110,70" fill="#FF6BA6"/>
  <polygon points="145,70 160,30 180,70" fill="#24D1C4"/>
  <!-- Eyes -->
  <circle cx="100" cy="110" r="7" fill="#1E1B26" opacity="0.9"/>
  <circle cx="140" cy="110" r="7" fill="#1E1B26" opacity="0.9"/>
  <!-- Nose -->
  <polygon points="120,122 114,130 126,130" fill="#1E1B26" opacity="0.8"/>
  <!-- Elemental spark (tail swirl) -->
  <path d="M120 165c35 0 60 20 60 38 0 14-16 22-30 18 14-6 16-18-2-26-26-12-60 6-88-6-14-6-18-18-10-28 10 12 34 4 70 4z"
        fill="#FFC857" opacity="0.9"/>
</svg>
